# Blender3D v249 OBJ File: hammer.blend
# www.blender3d.org
mtllib hammer.mtl
v 0.260351 -0.260371 0.260391
v -0.260391 -0.260371 0.260351
v -0.260351 -0.260371 -0.260391
v 0.260391 -0.260371 -0.260351
v 0.260351 0.260371 0.260391
v -0.260391 0.260371 0.260351
v -0.260351 0.260371 -0.260391
v 0.260391 0.260371 -0.260351
v 0.431851 4.666406 -0.424099
v -0.416414 4.666406 -0.424165
v -0.416480 4.666406 0.424100
v 0.431785 4.666406 0.424166
v 0.431785 5.577495 0.424166
v -0.416480 5.577495 0.424100
v -0.416414 5.577495 -0.424165
v 0.431851 5.577495 -0.424099
v -1.662311 5.577495 -0.424262
v -1.662377 5.577495 0.424003
v -1.662377 4.666406 0.424003
v -1.662311 4.666406 -0.424262
v 1.972308 6.002831 -0.819987
v 1.972181 6.002831 0.820293
v 1.972181 4.241069 0.820293
v 1.972308 4.241069 -0.819987
v 2.437003 4.241069 -0.819951
v 2.436875 4.241069 0.820329
v 2.436875 6.002831 0.820329
v 2.437003 6.002831 -0.819951
vn 1.000000 0.000000 0.000078
vn 0.000000 1.000000 0.000000
vn 0.000078 -0.000000 -1.000000
vn -0.000078 0.000000 1.000000
vn 0.000000 -1.000000 0.000000
vn -0.266156 -0.963930 -0.000021
vn -0.249056 0.000000 0.968489
vn -0.248906 -0.000000 -0.968528
vn -0.266156 0.963930 -0.000021
vn -1.000000 -0.000000 -0.000078
vn -0.000078 -0.037142 0.999310
vn 0.999244 -0.038882 0.000078
vn -0.999373 -0.035401 -0.000078
vn 0.000077 -0.037142 -0.999310
vn 0.000078 -0.037142 -0.999310
vn 0.000077 0.000000 -1.000000
vn -1.000000 -0.000000 -0.000077
vn -0.000077 -0.000000 1.000000
usemtl Material
s off
f 26//1 25//1 28//1
f 26//1 28//1 27//1
f 21//2 22//2 27//2
f 21//2 27//2 28//2
f 24//3 21//3 28//3
f 24//3 28//3 25//3
f 22//4 23//4 26//4
f 22//4 26//4 27//4
f 23//5 24//5 25//5
f 23//5 25//5 26//5
f 12//6 9//6 24//6
f 12//6 24//6 23//6
f 13//7 12//7 23//7
f 13//7 23//7 22//7
f 9//8 16//8 21//8
f 9//8 21//8 24//8
f 16//9 13//9 22//9
f 16//9 22//9 21//9
f 20//10 19//10 18//10
f 20//10 18//10 17//10
f 10//5 11//5 19//5
f 10//5 19//5 20//5
f 11//4 14//4 18//4
f 11//4 18//4 19//4
f 14//2 15//2 18//2
f 15//2 17//2 18//2
f 15//3 10//3 20//3
f 15//3 20//3 17//3
f 13//2 16//2 14//2
f 16//2 15//2 14//2
f 9//3 10//3 15//3
f 9//3 15//3 16//3
f 11//4 12//4 13//4
f 11//4 13//4 14//4
f 6//11 5//11 11//11
f 5//11 12//11 11//11
f 5//12 8//12 9//12
f 5//12 9//12 12//12
f 7//13 6//13 11//13
f 7//13 11//13 10//13
f 8//14 7//14 10//14
f 8//15 10//15 9//15
f 5//1 1//1 4//1
f 5//1 4//1 8//1
f 3//16 7//16 8//16
f 3//3 8//3 4//3
f 2//17 6//17 3//17
f 6//10 7//10 3//10
f 1//18 5//18 2//18
f 5//4 6//4 2//4
f 1//5 2//5 3//5
f 1//5 3//5 4//5
