# Blender3D v249 OBJ File: mallet.blend
# www.blender3d.org
mtllib mallet.mtl
v 0.259282 -0.365671 -0.332384
v 0.259282 -0.365671 0.332384
v -0.405486 -0.365671 0.332384
v -0.405486 -0.365671 -0.332385
v 0.259283 3.419312 -0.332384
v 0.259282 3.419312 0.332384
v -0.405486 3.419312 0.332384
v -0.405486 3.419312 -0.332385
v -2.264263 3.941858 -1.114665
v -2.264264 3.941858 1.114664
v 1.941584 3.941858 1.114665
v 1.941586 3.941858 -1.114665
v 1.941586 5.496097 -1.114665
v 1.941584 5.496097 1.114665
v -2.264264 5.496097 1.114664
v -2.264263 5.496097 -1.114666
v -0.523983 5.972580 -0.450882
v -0.523984 5.972580 0.450881
v 0.377779 5.972580 0.450881
v 0.377780 5.972580 -0.450882
vn 0.000000 1.000000 0.000000
vn 0.291465 0.956581 0.000000
vn 0.000000 0.812370 -0.583143
vn -0.000000 0.812370 0.583143
vn -0.000000 0.812369 0.583143
vn -0.264078 0.964501 -0.000000
vn -1.000000 -0.000000 -0.000000
vn -0.000000 0.000000 1.000000
vn 0.000000 -0.000000 -1.000000
vn 1.000000 0.000000 0.000001
vn 0.296633 -0.954991 0.000000
vn 0.000000 -0.831547 -0.555454
vn 0.000000 -0.831547 -0.555455
vn -0.000000 -0.831547 0.555455
vn -0.270633 -0.962683 -0.000000
vn 1.000000 0.000000 0.000000
vn 0.000000 -1.000000 0.000000
usemtl Material
s off
f 20//1 17//1 18//1
f 20//1 18//1 19//1
f 14//2 13//2 20//2
f 14//2 20//2 19//2
f 13//3 16//3 17//3
f 13//3 17//3 20//3
f 15//4 14//4 18//4
f 14//5 19//5 18//5
f 16//6 15//6 18//6
f 16//6 18//6 17//6
f 9//7 10//7 15//7
f 9//7 15//7 16//7
f 10//8 11//8 14//8
f 10//8 14//8 15//8
f 12//9 9//9 16//9
f 12//9 16//9 13//9
f 11//10 12//10 13//10
f 11//10 13//10 14//10
f 6//11 5//11 11//11
f 5//11 12//11 11//11
f 5//12 8//12 12//12
f 8//13 9//13 12//13
f 7//14 6//14 11//14
f 7//14 11//14 10//14
f 8//15 7//15 9//15
f 7//15 10//15 9//15
f 5//9 1//9 4//9
f 5//9 4//9 8//9
f 3//7 7//7 8//7
f 3//7 8//7 4//7
f 2//8 6//8 7//8
f 2//8 7//8 3//8
f 1//10 5//10 6//10
f 1//16 6//16 2//16
f 1//17 2//17 3//17
f 1//17 3//17 4//17
